<svg xmlns="http://www.w3.org/2000/svg" xmlns:xlink="http://www.w3.org/1999/xlink" width="500" zoomAndPan="magnify" viewBox="0 0 375 374.999991" height="500" preserveAspectRatio="xMidYMid meet" version="1.0"><defs><g/><clipPath id="22ee40073c"><path d="M 43 78 L 288.292969 78 L 288.292969 306 L 43 306 Z M 43 78 " clip-rule="nonzero"/></clipPath><clipPath id="4a9550b69b"><path d="M 138 186.011719 L 252.554688 186.011719 L 252.554688 285.011719 L 138 285.011719 Z M 138 186.011719 " clip-rule="nonzero"/></clipPath><clipPath id="b01b75b282"><path d="M 141 186.011719 L 251 186.011719 L 251 283 L 141 283 Z M 141 186.011719 " clip-rule="nonzero"/></clipPath><clipPath id="70087e0f93"><path d="M 145 186.011719 L 249 186.011719 L 249 279 L 145 279 Z M 145 186.011719 " clip-rule="nonzero"/></clipPath><clipPath id="0fdbc83224"><path d="M 148 186.011719 L 248 186.011719 L 248 276 L 148 276 Z M 148 186.011719 " clip-rule="nonzero"/></clipPath><clipPath id="94de327731"><path d="M 152 186.011719 L 245 186.011719 L 245 273 L 152 273 Z M 152 186.011719 " clip-rule="nonzero"/></clipPath><clipPath id="fadd2522da"><path d="M 69 136 L 195 136 L 195 255 L 69 255 Z M 69 136 " clip-rule="nonzero"/></clipPath><clipPath id="d347bcbd82"><path d="M 153.882812 87.367188 L 234.328125 185.320312 L 149.707031 254.8125 L 69.265625 156.863281 Z M 153.882812 87.367188 " clip-rule="nonzero"/></clipPath><clipPath id="5747e8fe3c"><path d="M 153.882812 87.367188 L 234.328125 185.320312 L 149.707031 254.8125 L 69.265625 156.863281 Z M 153.882812 87.367188 " clip-rule="nonzero"/></clipPath><clipPath id="b6c4e0bc9f"><path d="M 153.882812 87.367188 L 234.328125 185.320312 L 149.707031 254.8125 L 69.265625 156.863281 Z M 153.882812 87.367188 " clip-rule="nonzero"/></clipPath><clipPath id="abbbd99167"><path d="M 73 140 L 193 140 L 193 252 L 73 252 Z M 73 140 " clip-rule="nonzero"/></clipPath><clipPath id="008b5c2710"><path d="M 153.882812 87.367188 L 234.328125 185.320312 L 149.707031 254.8125 L 69.265625 156.863281 Z M 153.882812 87.367188 " clip-rule="nonzero"/></clipPath><clipPath id="95f69450ec"><path d="M 153.882812 87.367188 L 234.328125 185.320312 L 149.707031 254.8125 L 69.265625 156.863281 Z M 153.882812 87.367188 " clip-rule="nonzero"/></clipPath><clipPath id="57e4eed39e"><path d="M 153.882812 87.367188 L 234.328125 185.320312 L 149.707031 254.8125 L 69.265625 156.863281 Z M 153.882812 87.367188 " clip-rule="nonzero"/></clipPath><clipPath id="978d8f93c1"><path d="M 77 143 L 192 143 L 192 249 L 77 249 Z M 77 143 " clip-rule="nonzero"/></clipPath><clipPath id="82f29f5b5f"><path d="M 153.882812 87.367188 L 234.328125 185.320312 L 149.707031 254.8125 L 69.265625 156.863281 Z M 153.882812 87.367188 " clip-rule="nonzero"/></clipPath><clipPath id="b1509a5c1f"><path d="M 153.882812 87.367188 L 234.328125 185.320312 L 149.707031 254.8125 L 69.265625 156.863281 Z M 153.882812 87.367188 " clip-rule="nonzero"/></clipPath><clipPath id="a6d21535d0"><path d="M 153.882812 87.367188 L 234.328125 185.320312 L 149.707031 254.8125 L 69.265625 156.863281 Z M 153.882812 87.367188 " clip-rule="nonzero"/></clipPath><clipPath id="94475a72a4"><path d="M 81 147 L 191 147 L 191 246 L 81 246 Z M 81 147 " clip-rule="nonzero"/></clipPath><clipPath id="d49b8bcab9"><path d="M 153.882812 87.367188 L 234.328125 185.320312 L 149.707031 254.8125 L 69.265625 156.863281 Z M 153.882812 87.367188 " clip-rule="nonzero"/></clipPath><clipPath id="c6c8e2649f"><path d="M 153.882812 87.367188 L 234.328125 185.320312 L 149.707031 254.8125 L 69.265625 156.863281 Z M 153.882812 87.367188 " clip-rule="nonzero"/></clipPath><clipPath id="d0ba4b70b9"><path d="M 153.882812 87.367188 L 234.328125 185.320312 L 149.707031 254.8125 L 69.265625 156.863281 Z M 153.882812 87.367188 " clip-rule="nonzero"/></clipPath><clipPath id="60686ed76f"><path d="M 85 150 L 189 150 L 189 243 L 85 243 Z M 85 150 " clip-rule="nonzero"/></clipPath><clipPath id="68d3be191b"><path d="M 153.882812 87.367188 L 234.328125 185.320312 L 149.707031 254.8125 L 69.265625 156.863281 Z M 153.882812 87.367188 " clip-rule="nonzero"/></clipPath><clipPath id="6b3195617a"><path d="M 153.882812 87.367188 L 234.328125 185.320312 L 149.707031 254.8125 L 69.265625 156.863281 Z M 153.882812 87.367188 " clip-rule="nonzero"/></clipPath><clipPath id="b97d73a087"><path d="M 153.882812 87.367188 L 234.328125 185.320312 L 149.707031 254.8125 L 69.265625 156.863281 Z M 153.882812 87.367188 " clip-rule="nonzero"/></clipPath><clipPath id="95f94ecea2"><path d="M 88 154 L 187 154 L 187 239 L 88 239 Z M 88 154 " clip-rule="nonzero"/></clipPath><clipPath id="e3b8031ab8"><path d="M 153.882812 87.367188 L 234.328125 185.320312 L 149.707031 254.8125 L 69.265625 156.863281 Z M 153.882812 87.367188 " clip-rule="nonzero"/></clipPath><clipPath id="02a7466de5"><path d="M 153.882812 87.367188 L 234.328125 185.320312 L 149.707031 254.8125 L 69.265625 156.863281 Z M 153.882812 87.367188 " clip-rule="nonzero"/></clipPath><clipPath id="eb3032b573"><path d="M 153.882812 87.367188 L 234.328125 185.320312 L 149.707031 254.8125 L 69.265625 156.863281 Z M 153.882812 87.367188 " clip-rule="nonzero"/></clipPath><clipPath id="c4a6bae656"><path d="M 92 154 L 185 154 L 185 236 L 92 236 Z M 92 154 " clip-rule="nonzero"/></clipPath><clipPath id="a3995071be"><path d="M 153.882812 87.367188 L 234.328125 185.320312 L 149.707031 254.8125 L 69.265625 156.863281 Z M 153.882812 87.367188 " clip-rule="nonzero"/></clipPath><clipPath id="803c5e97ef"><path d="M 153.882812 87.367188 L 234.328125 185.320312 L 149.707031 254.8125 L 69.265625 156.863281 Z M 153.882812 87.367188 " clip-rule="nonzero"/></clipPath><clipPath id="14359d8f67"><path d="M 153.882812 87.367188 L 234.328125 185.320312 L 149.707031 254.8125 L 69.265625 156.863281 Z M 153.882812 87.367188 " clip-rule="nonzero"/></clipPath><clipPath id="d2cea90fc5"><path d="M 96 155 L 182 155 L 182 232 L 96 232 Z M 96 155 " clip-rule="nonzero"/></clipPath><clipPath id="c09f68b82d"><path d="M 153.882812 87.367188 L 234.328125 185.320312 L 149.707031 254.8125 L 69.265625 156.863281 Z M 153.882812 87.367188 " clip-rule="nonzero"/></clipPath><clipPath id="2579a6e384"><path d="M 153.882812 87.367188 L 234.328125 185.320312 L 149.707031 254.8125 L 69.265625 156.863281 Z M 153.882812 87.367188 " clip-rule="nonzero"/></clipPath><clipPath id="7f183c1a0a"><path d="M 153.882812 87.367188 L 234.328125 185.320312 L 149.707031 254.8125 L 69.265625 156.863281 Z M 153.882812 87.367188 " clip-rule="nonzero"/></clipPath><clipPath id="31ef6e24d5"><path d="M 100 156 L 180 156 L 180 229 L 100 229 Z M 100 156 " clip-rule="nonzero"/></clipPath><clipPath id="31cca73bbf"><path d="M 153.882812 87.367188 L 234.328125 185.320312 L 149.707031 254.8125 L 69.265625 156.863281 Z M 153.882812 87.367188 " clip-rule="nonzero"/></clipPath><clipPath id="968b308bb0"><path d="M 153.882812 87.367188 L 234.328125 185.320312 L 149.707031 254.8125 L 69.265625 156.863281 Z M 153.882812 87.367188 " clip-rule="nonzero"/></clipPath><clipPath id="c5e363645c"><path d="M 153.882812 87.367188 L 234.328125 185.320312 L 149.707031 254.8125 L 69.265625 156.863281 Z M 153.882812 87.367188 " clip-rule="nonzero"/></clipPath><clipPath id="03c3954da0"><path d="M 103 156 L 177 156 L 177 225 L 103 225 Z M 103 156 " clip-rule="nonzero"/></clipPath><clipPath id="a105e079d1"><path d="M 153.882812 87.367188 L 234.328125 185.320312 L 149.707031 254.8125 L 69.265625 156.863281 Z M 153.882812 87.367188 " clip-rule="nonzero"/></clipPath><clipPath id="b1733ad447"><path d="M 153.882812 87.367188 L 234.328125 185.320312 L 149.707031 254.8125 L 69.265625 156.863281 Z M 153.882812 87.367188 " clip-rule="nonzero"/></clipPath><clipPath id="bc80811791"><path d="M 153.882812 87.367188 L 234.328125 185.320312 L 149.707031 254.8125 L 69.265625 156.863281 Z M 153.882812 87.367188 " clip-rule="nonzero"/></clipPath><clipPath id="03ac566028"><path d="M 107 158 L 175 158 L 175 222 L 107 222 Z M 107 158 " clip-rule="nonzero"/></clipPath><clipPath id="1e7e771a59"><path d="M 153.882812 87.367188 L 234.328125 185.320312 L 149.707031 254.8125 L 69.265625 156.863281 Z M 153.882812 87.367188 " clip-rule="nonzero"/></clipPath><clipPath id="3baeca0d2e"><path d="M 153.882812 87.367188 L 234.328125 185.320312 L 149.707031 254.8125 L 69.265625 156.863281 Z M 153.882812 87.367188 " clip-rule="nonzero"/></clipPath><clipPath id="00647ac71b"><path d="M 153.882812 87.367188 L 234.328125 185.320312 L 149.707031 254.8125 L 69.265625 156.863281 Z M 153.882812 87.367188 " clip-rule="nonzero"/></clipPath><clipPath id="3b07d86e71"><path d="M 110 159 L 172 159 L 172 218 L 110 218 Z M 110 159 " clip-rule="nonzero"/></clipPath><clipPath id="40ae646829"><path d="M 153.882812 87.367188 L 234.328125 185.320312 L 149.707031 254.8125 L 69.265625 156.863281 Z M 153.882812 87.367188 " clip-rule="nonzero"/></clipPath><clipPath id="ad4386260f"><path d="M 153.882812 87.367188 L 234.328125 185.320312 L 149.707031 254.8125 L 69.265625 156.863281 Z M 153.882812 87.367188 " clip-rule="nonzero"/></clipPath><clipPath id="30ece59741"><path d="M 153.882812 87.367188 L 234.328125 185.320312 L 149.707031 254.8125 L 69.265625 156.863281 Z M 153.882812 87.367188 " clip-rule="nonzero"/></clipPath><clipPath id="48b4c416b7"><path d="M 114 161 L 169 161 L 169 214 L 114 214 Z M 114 161 " clip-rule="nonzero"/></clipPath><clipPath id="57e9ceb540"><path d="M 153.882812 87.367188 L 234.328125 185.320312 L 149.707031 254.8125 L 69.265625 156.863281 Z M 153.882812 87.367188 " clip-rule="nonzero"/></clipPath><clipPath id="0aaa8338bd"><path d="M 153.882812 87.367188 L 234.328125 185.320312 L 149.707031 254.8125 L 69.265625 156.863281 Z M 153.882812 87.367188 " clip-rule="nonzero"/></clipPath><clipPath id="3777f16080"><path d="M 153.882812 87.367188 L 234.328125 185.320312 L 149.707031 254.8125 L 69.265625 156.863281 Z M 153.882812 87.367188 " clip-rule="nonzero"/></clipPath><clipPath id="9e91123b36"><path d="M 117 162 L 166 162 L 166 210 L 117 210 Z M 117 162 " clip-rule="nonzero"/></clipPath><clipPath id="446bee0ab8"><path d="M 153.882812 87.367188 L 234.328125 185.320312 L 149.707031 254.8125 L 69.265625 156.863281 Z M 153.882812 87.367188 " clip-rule="nonzero"/></clipPath><clipPath id="a5ccdcf722"><path d="M 153.882812 87.367188 L 234.328125 185.320312 L 149.707031 254.8125 L 69.265625 156.863281 Z M 153.882812 87.367188 " clip-rule="nonzero"/></clipPath><clipPath id="b15d904319"><path d="M 153.882812 87.367188 L 234.328125 185.320312 L 149.707031 254.8125 L 69.265625 156.863281 Z M 153.882812 87.367188 " clip-rule="nonzero"/></clipPath><clipPath id="91fe32fc60"><path d="M 120 164 L 162 164 L 162 207 L 120 207 Z M 120 164 " clip-rule="nonzero"/></clipPath><clipPath id="8db03f9641"><path d="M 153.882812 87.367188 L 234.328125 185.320312 L 149.707031 254.8125 L 69.265625 156.863281 Z M 153.882812 87.367188 " clip-rule="nonzero"/></clipPath><clipPath id="f63182be1d"><path d="M 153.882812 87.367188 L 234.328125 185.320312 L 149.707031 254.8125 L 69.265625 156.863281 Z M 153.882812 87.367188 " clip-rule="nonzero"/></clipPath><clipPath id="ddee9f3efd"><path d="M 153.882812 87.367188 L 234.328125 185.320312 L 149.707031 254.8125 L 69.265625 156.863281 Z M 153.882812 87.367188 " clip-rule="nonzero"/></clipPath><clipPath id="94272b39ef"><path d="M 123 167 L 159 167 L 159 203 L 123 203 Z M 123 167 " clip-rule="nonzero"/></clipPath><clipPath id="019d63580b"><path d="M 153.882812 87.367188 L 234.328125 185.320312 L 149.707031 254.8125 L 69.265625 156.863281 Z M 153.882812 87.367188 " clip-rule="nonzero"/></clipPath><clipPath id="133e2e3203"><path d="M 153.882812 87.367188 L 234.328125 185.320312 L 149.707031 254.8125 L 69.265625 156.863281 Z M 153.882812 87.367188 " clip-rule="nonzero"/></clipPath><clipPath id="018b5c1b86"><path d="M 153.882812 87.367188 L 234.328125 185.320312 L 149.707031 254.8125 L 69.265625 156.863281 Z M 153.882812 87.367188 " clip-rule="nonzero"/></clipPath><clipPath id="569c91c58d"><path d="M 126 169 L 155 169 L 155 199 L 126 199 Z M 126 169 " clip-rule="nonzero"/></clipPath><clipPath id="28b0e8725c"><path d="M 153.882812 87.367188 L 234.328125 185.320312 L 149.707031 254.8125 L 69.265625 156.863281 Z M 153.882812 87.367188 " clip-rule="nonzero"/></clipPath><clipPath id="a10eb36dbb"><path d="M 153.882812 87.367188 L 234.328125 185.320312 L 149.707031 254.8125 L 69.265625 156.863281 Z M 153.882812 87.367188 " clip-rule="nonzero"/></clipPath><clipPath id="2156cf889b"><path d="M 153.882812 87.367188 L 234.328125 185.320312 L 149.707031 254.8125 L 69.265625 156.863281 Z M 153.882812 87.367188 " clip-rule="nonzero"/></clipPath><clipPath id="1920f9bdc1"><path d="M 129 172 L 151 172 L 151 195 L 129 195 Z M 129 172 " clip-rule="nonzero"/></clipPath><clipPath id="ac16f5e788"><path d="M 153.882812 87.367188 L 234.328125 185.320312 L 149.707031 254.8125 L 69.265625 156.863281 Z M 153.882812 87.367188 " clip-rule="nonzero"/></clipPath><clipPath id="438933bca5"><path d="M 153.882812 87.367188 L 234.328125 185.320312 L 149.707031 254.8125 L 69.265625 156.863281 Z M 153.882812 87.367188 " clip-rule="nonzero"/></clipPath><clipPath id="25e74011be"><path d="M 153.882812 87.367188 L 234.328125 185.320312 L 149.707031 254.8125 L 69.265625 156.863281 Z M 153.882812 87.367188 " clip-rule="nonzero"/></clipPath><clipPath id="8b4845d49c"><path d="M 132 175 L 147 175 L 147 191 L 132 191 Z M 132 175 " clip-rule="nonzero"/></clipPath><clipPath id="f325cd0b9d"><path d="M 153.882812 87.367188 L 234.328125 185.320312 L 149.707031 254.8125 L 69.265625 156.863281 Z M 153.882812 87.367188 " clip-rule="nonzero"/></clipPath><clipPath id="5be9ba6c2b"><path d="M 153.882812 87.367188 L 234.328125 185.320312 L 149.707031 254.8125 L 69.265625 156.863281 Z M 153.882812 87.367188 " clip-rule="nonzero"/></clipPath><clipPath id="19c6b1f489"><path d="M 153.882812 87.367188 L 234.328125 185.320312 L 149.707031 254.8125 L 69.265625 156.863281 Z M 153.882812 87.367188 " clip-rule="nonzero"/></clipPath><clipPath id="059a2cb3df"><path d="M 135 178 L 143 178 L 143 187 L 135 187 Z M 135 178 " clip-rule="nonzero"/></clipPath><clipPath id="d2dc839eb2"><path d="M 153.882812 87.367188 L 234.328125 185.320312 L 149.707031 254.8125 L 69.265625 156.863281 Z M 153.882812 87.367188 " clip-rule="nonzero"/></clipPath><clipPath id="c8747e8282"><path d="M 153.882812 87.367188 L 234.328125 185.320312 L 149.707031 254.8125 L 69.265625 156.863281 Z M 153.882812 87.367188 " clip-rule="nonzero"/></clipPath><clipPath id="3ec98cfee1"><path d="M 153.882812 87.367188 L 234.328125 185.320312 L 149.707031 254.8125 L 69.265625 156.863281 Z M 153.882812 87.367188 " clip-rule="nonzero"/></clipPath><clipPath id="a4249b51a1"><path d="M 30 68 L 284.097656 68 L 284.097656 304 L 30 304 Z M 30 68 " clip-rule="nonzero"/></clipPath></defs><g clip-path="url(#22ee40073c)"><path fill="#000000" d="M 246.339844 182.988281 C 215.695312 224.460938 203.664062 240.871094 191.636719 257.277344 C 190.183594 259.257812 188.542969 261.105469 186.652344 263.417969 C 175.03125 246.253906 163.816406 229.691406 152.152344 212.46875 C 164.59375 212.46875 176.027344 212.402344 187.464844 212.519531 C 189.894531 212.539062 191.414062 211.765625 192.835938 209.785156 C 197.972656 202.640625 203.3125 195.644531 208.570312 188.589844 C 209.675781 187.105469 210.78125 185.605469 212.308594 183.542969 L 207.5625 183.542969 C 185.871094 183.542969 164.171875 183.558594 142.480469 183.539062 C 126.089844 183.523438 109.699219 183.53125 93.308594 183.398438 C 85.148438 183.335938 78.675781 177.328125 78.207031 169.746094 C 77.734375 162.191406 83.109375 155.726562 91.066406 154.46875 C 93.433594 154.09375 95.863281 154.007812 98.257812 154 C 131.039062 153.96875 163.816406 153.976562 196.605469 153.984375 C 197.996094 153.984375 199.375 153.984375 200.875 153.984375 C 200.9375 152.464844 201.019531 151.515625 201.019531 150.570312 C 201.027344 134.894531 201.027344 119.21875 201.019531 103.546875 C 201.011719 95.03125 201.003906 86.511719 200.976562 78.003906 L 165.367188 78.003906 C 165.453125 91.460938 165.539062 104.921875 165.640625 118.382812 C 165.675781 123.476562 164.203125 125.132812 159.183594 125.5 C 158.21875 125.574219 157.257812 125.515625 156.289062 125.507812 C 140.019531 125.394531 123.753906 125.175781 107.484375 125.183594 C 98.453125 125.191406 89.332031 124.84375 80.40625 125.941406 C 59.414062 128.527344 44.320312 145.699219 43.277344 167.140625 C 42.292969 187.386719 56.457031 206.714844 76.613281 210.839844 C 85.570312 212.671875 95.039062 212.25 104.28125 212.382812 C 109.230469 212.445312 112.746094 214.097656 115.515625 218.183594 C 121.792969 227.46875 128.265625 236.625 134.691406 245.804688 C 146.300781 262.390625 157.914062 278.972656 169.5625 295.527344 C 174.828125 303.011719 181.8125 306.996094 191.195312 305.722656 C 197.554688 304.863281 202.296875 301.351562 205.972656 296.242188 C 226.101562 268.3125 246.238281 240.371094 288.328125 182.972656 L 246.339844 182.972656 Z M 246.339844 182.988281 " fill-opacity="1" fill-rule="nonzero"/></g><g clip-path="url(#4a9550b69b)"><path stroke-linecap="round" transform="matrix(-0.0847483, -0.00000000000000001, 0.00000000000000001, -0.0844872, 205.355588, 240.544467)" fill="none" stroke-linejoin="round" d="M -552.231045 640.462737 L 119.979793 -523.822995 L 792.190631 640.462737 Z M -552.231045 640.462737 " stroke="#030303" stroke-width="5" stroke-opacity="1" stroke-miterlimit="4"/><path stroke-linecap="round" transform="matrix(-0.0847483, -0.00000000000000001, 0.00000000000000001, -0.0844872, 205.355588, 240.544467)" fill="none" stroke-linejoin="round" d="M -552.231045 640.462737 L 119.979793 -523.822995 L 792.190631 640.462737 Z M -552.231045 640.462737 " stroke="#030303" stroke-width="5" stroke-opacity="1" stroke-miterlimit="4"/></g><g clip-path="url(#b01b75b282)"><path stroke-linecap="round" transform="matrix(-0.0808847, -0.00253125, 0.00253908, -0.0806354, 204.251578, 239.877246)" fill="none" stroke-linejoin="round" d="M -552.209346 640.441192 L 120.006655 -523.827446 L 792.202533 640.480948 Z M -552.209346 640.441192 " stroke="#030303" stroke-width="5" stroke-opacity="1" stroke-miterlimit="4"/></g><g clip-path="url(#70087e0f93)"><path stroke-linecap="round" transform="matrix(-0.0769291, -0.00482505, 0.00483997, -0.076692, 203.195866, 239.156351)" fill="none" stroke-linejoin="round" d="M -552.219186 640.454426 L 119.992618 -523.817818 L 792.212581 640.471783 Z M -552.219186 640.454426 " stroke="#030303" stroke-width="5" stroke-opacity="1" stroke-miterlimit="4"/></g><g clip-path="url(#0fdbc83224)"><path stroke-linecap="round" transform="matrix(-0.0728908, -0.00686898, 0.00689021, -0.0726662, 202.193809, 238.385682)" fill="none" stroke-linejoin="round" d="M -552.23391 640.439908 L 120.024169 -523.816533 L 792.193019 640.487259 Z M -552.23391 640.439908 " stroke="#030303" stroke-width="5" stroke-opacity="1" stroke-miterlimit="4"/></g><g clip-path="url(#94de327731)"><path stroke-linecap="round" transform="matrix(-0.0687817, -0.00866237, 0.00868915, -0.0685697, 201.246877, 237.567054)" fill="none" stroke-linejoin="round" d="M -552.195679 640.469001 L 120.002471 -523.813737 L 792.182535 640.45484 Z M -552.195679 640.469001 " stroke="#030303" stroke-width="5" stroke-opacity="1" stroke-miterlimit="4"/></g><path stroke-linecap="round" transform="matrix(-0.0646118, -0.010202, 0.0102335, -0.0644127, 200.356544, 236.702358)" fill="none" stroke-linejoin="round" d="M -552.207129 640.462491 L 120.006411 -523.820396 L 792.236911 640.444866 Z M -552.207129 640.462491 " stroke="#030303" stroke-width="5" stroke-opacity="1" stroke-miterlimit="4"/><path stroke-linecap="round" transform="matrix(-0.0603892, -0.0114844, 0.0115199, -0.0602031, 199.52529, 235.794198)" fill="none" stroke-linejoin="round" d="M -552.196517 640.460459 L 120.028568 -523.849901 L 792.213543 640.489181 Z M -552.196517 640.460459 " stroke="#030303" stroke-width="5" stroke-opacity="1" stroke-miterlimit="4"/><path stroke-linecap="round" transform="matrix(-0.0561262, -0.012506, 0.0125447, -0.0559533, 198.755264, 234.844672)" fill="none" stroke-linejoin="round" d="M -552.175963 640.465391 L 119.984831 -523.867751 L 792.237439 640.451994 Z M -552.175963 640.465391 " stroke="#030303" stroke-width="5" stroke-opacity="1" stroke-miterlimit="4"/><path stroke-linecap="round" transform="matrix(-0.0518331, -0.0132675, 0.0133085, -0.0516733, 198.046911, 233.855286)" fill="none" stroke-linejoin="round" d="M -552.172519 640.470971 L 119.998019 -523.844857 L 792.20908 640.459566 Z M -552.172519 640.470971 " stroke="#030303" stroke-width="5" stroke-opacity="1" stroke-miterlimit="4"/><path stroke-linecap="round" transform="matrix(-0.0475185, -0.0137673, 0.0138099, -0.047372, 197.401192, 232.82751)" fill="none" stroke-linejoin="round" d="M -552.17588 640.454821 L 119.991245 -523.866657 L 792.197972 640.441455 Z M -552.17588 640.454821 " stroke="#030303" stroke-width="5" stroke-opacity="1" stroke-miterlimit="4"/><path stroke-linecap="round" transform="matrix(-0.0431927, -0.0139917, 0.014035, -0.0430596, 196.82696, 231.768383)" fill="none" stroke-linejoin="round" d="M -552.232457 640.440255 L 119.982351 -523.806591 L 792.223102 640.468516 Z M -552.232457 640.440255 " stroke="#030303" stroke-width="5" stroke-opacity="1" stroke-miterlimit="4"/><path stroke-linecap="round" transform="matrix(-0.0388643, -0.0139489, 0.013992, -0.0387446, 196.318835, 230.674614)" fill="none" stroke-linejoin="round" d="M -552.222887 640.477384 L 120.028476 -523.854802 L 792.203145 640.493907 Z M -552.222887 640.477384 " stroke="#030303" stroke-width="5" stroke-opacity="1" stroke-miterlimit="4"/><path stroke-linecap="round" transform="matrix(-0.034543, -0.0136344, 0.0136766, -0.0344366, 195.879966, 229.550258)" fill="none" stroke-linejoin="round" d="M -552.218416 640.481551 L 120.006673 -523.835148 L 792.205983 640.414773 Z M -552.218416 640.481551 " stroke="#030303" stroke-width="5" stroke-opacity="1" stroke-miterlimit="4"/><path stroke-linecap="round" transform="matrix(-0.0302357, -0.013044, 0.0130843, -0.0301425, 195.512072, 228.395215)" fill="none" stroke-linejoin="round" d="M -552.245646 640.482123 L 119.941326 -523.858296 L 792.238313 640.407347 Z M -552.245646 640.482123 " stroke="#030303" stroke-width="5" stroke-opacity="1" stroke-miterlimit="4"/><path stroke-linecap="round" transform="matrix(-0.0259486, -0.0121729, 0.0122105, -0.0258686, 195.217991, 227.211664)" fill="none" stroke-linejoin="round" d="M -552.223573 640.412972 L 120.0421 -523.814483 L 792.25015 640.455262 Z M -552.223573 640.412972 " stroke="#030303" stroke-width="5" stroke-opacity="1" stroke-miterlimit="4"/><path stroke-linecap="round" transform="matrix(-0.0216846, -0.0110148, 0.0110488, -0.0216178, 194.999053, 226.00068)" fill="none" stroke-linejoin="round" d="M -552.252398 640.461768 L 119.974842 -523.862204 L 792.138212 640.480498 Z M -552.252398 640.461768 " stroke="#030303" stroke-width="5" stroke-opacity="1" stroke-miterlimit="4"/><path stroke-linecap="round" transform="matrix(-0.0174472, -0.00956212, 0.00959168, -0.0173934, 194.858781, 224.76)" fill="none" stroke-linejoin="round" d="M -552.269353 640.386682 L 119.961293 -523.746064 L 792.179032 640.369034 Z M -552.269353 640.386682 " stroke="#030303" stroke-width="5" stroke-opacity="1" stroke-miterlimit="4"/><path stroke-linecap="round" transform="matrix(-0.0132275, -0.00779901, 0.00782312, -0.0131868, 194.799337, 223.486509)" fill="none" stroke-linejoin="round" d="M -552.165631 640.430249 L 120.083496 -523.787203 L 792.111568 640.456461 Z M -552.165631 640.430249 " stroke="#030303" stroke-width="5" stroke-opacity="1" stroke-miterlimit="4"/><path stroke-linecap="round" transform="matrix(-0.00900791, -0.00569941, 0.00571703, -0.00898015, 194.824151, 222.173803)" fill="none" stroke-linejoin="round" d="M -552.322316 640.4577 L 119.808243 -523.860731 L 792.408215 640.445019 Z M -552.322316 640.4577 " stroke="#030303" stroke-width="5" stroke-opacity="1" stroke-miterlimit="4"/><path stroke-linecap="round" transform="matrix(-0.00472896, -0.00320375, 0.00321366, -0.00471438, 194.942569, 220.79729)" fill="none" stroke-linejoin="round" d="M -552.353136 640.596623 L 119.997163 -523.920768 L 792.447067 640.636167 Z M -552.353136 640.596623 " stroke="#030303" stroke-width="5" stroke-opacity="1" stroke-miterlimit="4"/><path fill="#000000" d="M 219.601562 262.007812 L 303.824219 262.007812 C 305.226562 262.007812 306.574219 262.566406 307.566406 263.558594 C 308.558594 264.546875 309.117188 265.894531 309.117188 267.296875 L 309.117188 284.550781 C 309.117188 285.953125 308.558594 287.300781 307.566406 288.292969 C 306.574219 289.28125 305.226562 289.839844 303.824219 289.839844 L 219.601562 289.839844 C 218.199219 289.839844 216.851562 289.28125 215.859375 288.292969 C 214.867188 287.300781 214.3125 285.953125 214.3125 284.550781 L 214.3125 267.296875 C 214.3125 265.894531 214.867188 264.546875 215.859375 263.558594 C 216.851562 262.566406 218.199219 262.007812 219.601562 262.007812 " fill-opacity="1" fill-rule="nonzero"/><g fill="#ffe500" fill-opacity="1"><g transform="translate(219.619429, 282.673985)"><g><path d="M 4.5 0 L 4.5 -15.046875 L 2.09375 -15.046875 L 2.09375 0 Z M 4.5 0 "/></g></g></g><g fill="#ffe500" fill-opacity="1"><g transform="translate(226.209806, 282.673985)"><g><path d="M 20.046875 0 L 18.40625 0 L 4.5 -11.34375 L 4.5 0 L 2.09375 0 L 2.09375 -15.046875 L 3.71875 -15.046875 L 17.640625 -3.71875 L 17.640625 -15.046875 L 20.046875 -15.046875 Z M 20.046875 0 "/></g></g></g><g fill="#ffe500" fill-opacity="1"><g transform="translate(248.342141, 282.673985)"><g><path d="M 4.5 0 L 4.5 -15.046875 L 2.09375 -15.046875 L 2.09375 0 Z M 4.5 0 "/></g></g></g><g fill="#ffe500" fill-opacity="1"><g transform="translate(254.932518, 282.673985)"><g><path d="M 14.734375 0 C 16.054688 0 17.179688 -0.460938 18.109375 -1.390625 C 19.046875 -2.328125 19.515625 -3.457031 19.515625 -4.78125 L 17.125 -4.78125 C 17.125 -4.125 16.890625 -3.5625 16.421875 -3.09375 C 15.953125 -2.625 15.390625 -2.390625 14.734375 -2.390625 L 6.359375 -2.390625 C 5.691406 -2.390625 5.125 -2.625 4.65625 -3.09375 C 4.195312 -3.5625 3.96875 -4.125 3.96875 -4.78125 L 3.96875 -10.28125 C 3.96875 -10.9375 4.195312 -11.5 4.65625 -11.96875 C 5.125 -12.4375 5.691406 -12.671875 6.359375 -12.671875 L 14.734375 -12.671875 C 15.390625 -12.671875 15.953125 -12.4375 16.421875 -11.96875 C 16.890625 -11.5 17.125 -10.9375 17.125 -10.28125 L 19.515625 -10.28125 C 19.515625 -11.59375 19.046875 -12.710938 18.109375 -13.640625 C 17.179688 -14.578125 16.054688 -15.046875 14.734375 -15.046875 L 6.359375 -15.046875 C 5.035156 -15.046875 3.90625 -14.578125 2.96875 -13.640625 C 2.039062 -12.710938 1.578125 -11.59375 1.578125 -10.28125 L 1.578125 -4.78125 C 1.578125 -3.457031 2.039062 -2.328125 2.96875 -1.390625 C 3.90625 -0.460938 5.035156 0 6.359375 0 Z M 14.734375 0 "/></g></g></g><g fill="#ffe500" fill-opacity="1"><g transform="translate(276.015429, 282.673985)"><g><path d="M 4.5 0 L 4.5 -15.046875 L 2.09375 -15.046875 L 2.09375 0 Z M 4.5 0 "/></g></g></g><g fill="#ffe500" fill-opacity="1"><g transform="translate(282.605806, 282.673985)"><g><path d="M 14.734375 0 C 16.054688 0 17.179688 -0.460938 18.109375 -1.390625 C 19.046875 -2.328125 19.515625 -3.457031 19.515625 -4.78125 L 19.515625 -10.28125 C 19.515625 -11.59375 19.046875 -12.710938 18.109375 -13.640625 C 17.179688 -14.578125 16.054688 -15.046875 14.734375 -15.046875 L 6.359375 -15.046875 C 5.035156 -15.046875 3.90625 -14.578125 2.96875 -13.640625 C 2.039062 -12.710938 1.578125 -11.59375 1.578125 -10.28125 L 1.578125 -4.78125 C 1.578125 -3.457031 2.039062 -2.328125 2.96875 -1.390625 C 3.90625 -0.460938 5.035156 0 6.359375 0 Z M 14.734375 -2.390625 L 6.359375 -2.390625 C 5.691406 -2.390625 5.125 -2.625 4.65625 -3.09375 C 4.195312 -3.5625 3.96875 -4.125 3.96875 -4.78125 L 3.96875 -10.28125 C 3.96875 -10.9375 4.195312 -11.5 4.65625 -11.96875 C 5.125 -12.4375 5.691406 -12.671875 6.359375 -12.671875 L 14.734375 -12.671875 C 15.390625 -12.671875 15.953125 -12.4375 16.421875 -11.96875 C 16.890625 -11.5 17.125 -10.9375 17.125 -10.28125 L 17.125 -4.78125 C 17.125 -4.125 16.890625 -3.5625 16.421875 -3.09375 C 15.953125 -2.625 15.390625 -2.390625 14.734375 -2.390625 Z M 14.734375 -2.390625 "/></g></g></g><path fill="#000000" d="M 186.757812 146.675781 L 327.785156 146.675781 C 332.363281 146.675781 336.070312 150.382812 336.070312 154.953125 L 336.070312 177.8125 C 336.070312 182.386719 332.363281 186.089844 327.785156 186.089844 L 186.757812 186.089844 C 182.179688 186.089844 178.46875 182.386719 178.46875 177.8125 L 178.46875 154.953125 C 178.46875 150.382812 182.179688 146.675781 186.757812 146.675781 " fill-opacity="1" fill-rule="nonzero"/><g fill="#ffe500" fill-opacity="1"><g transform="translate(195.634835, 173.054526)"><g><path d="M 14.703125 0 C 16.023438 0 17.148438 -0.460938 18.078125 -1.390625 C 19.015625 -2.328125 19.484375 -3.457031 19.484375 -4.78125 L 19.484375 -10.265625 C 19.484375 -11.578125 19.015625 -12.695312 18.078125 -13.625 C 17.148438 -14.5625 16.023438 -15.03125 14.703125 -15.03125 L 6.359375 -15.03125 C 5.035156 -15.03125 3.90625 -14.5625 2.96875 -13.625 C 2.039062 -12.695312 1.578125 -11.578125 1.578125 -10.265625 L 1.578125 -4.78125 C 1.578125 -3.457031 2.039062 -2.328125 2.96875 -1.390625 C 3.90625 -0.460938 5.035156 0 6.359375 0 Z M 14.703125 -2.390625 L 6.359375 -2.390625 C 5.691406 -2.390625 5.125 -2.617188 4.65625 -3.078125 C 4.195312 -3.546875 3.96875 -4.113281 3.96875 -4.78125 L 3.96875 -10.265625 C 3.96875 -10.921875 4.195312 -11.484375 4.65625 -11.953125 C 5.125 -12.421875 5.691406 -12.65625 6.359375 -12.65625 L 14.703125 -12.65625 C 15.359375 -12.65625 15.921875 -12.421875 16.390625 -11.953125 C 16.859375 -11.484375 17.09375 -10.921875 17.09375 -10.265625 L 17.09375 -4.78125 C 17.09375 -4.113281 16.859375 -3.546875 16.390625 -3.078125 C 15.921875 -2.617188 15.359375 -2.390625 14.703125 -2.390625 Z M 14.703125 -2.390625 "/></g></g></g><g fill="#ffe500" fill-opacity="1"><g transform="translate(216.689345, 173.054526)"><g><path d="M 14.703125 0 C 16.023438 0 17.148438 -0.460938 18.078125 -1.390625 C 19.015625 -2.328125 19.484375 -3.457031 19.484375 -4.78125 L 19.484375 -15.03125 L 17.09375 -15.03125 L 17.09375 -4.78125 C 17.09375 -4.113281 16.859375 -3.546875 16.390625 -3.078125 C 15.921875 -2.617188 15.359375 -2.390625 14.703125 -2.390625 L 6.359375 -2.390625 C 5.691406 -2.390625 5.125 -2.617188 4.65625 -3.078125 C 4.195312 -3.546875 3.96875 -4.113281 3.96875 -4.78125 L 3.96875 -15.03125 L 1.578125 -15.03125 L 1.578125 -4.78125 C 1.578125 -3.457031 2.039062 -2.328125 2.96875 -1.390625 C 3.90625 -0.460938 5.035156 0 6.359375 0 Z M 14.703125 0 "/></g></g></g><g fill="#ffe500" fill-opacity="1"><g transform="translate(237.743855, 173.054526)"><g><path d="M 14.703125 0 C 15.984375 0 17.109375 -0.460938 18.078125 -1.390625 C 19.003906 -2.335938 19.472656 -3.46875 19.484375 -4.78125 L 19.484375 -6.328125 C 19.484375 -6.796875 19.316406 -7.195312 18.984375 -7.53125 C 18.648438 -7.863281 18.25 -8.03125 17.78125 -8.03125 L 10.53125 -8.03125 L 10.53125 -5.640625 L 17.09375 -5.640625 L 17.09375 -4.78125 C 17.09375 -4.132812 16.859375 -3.570312 16.390625 -3.09375 C 15.898438 -2.625 15.335938 -2.390625 14.703125 -2.390625 L 6.359375 -2.390625 C 5.691406 -2.390625 5.125 -2.617188 4.65625 -3.078125 C 4.195312 -3.546875 3.96875 -4.113281 3.96875 -4.78125 L 3.96875 -10.265625 C 3.96875 -10.921875 4.195312 -11.484375 4.65625 -11.953125 C 5.125 -12.421875 5.691406 -12.65625 6.359375 -12.65625 L 14.703125 -12.65625 C 15.359375 -12.65625 15.921875 -12.421875 16.390625 -11.953125 C 16.859375 -11.484375 17.09375 -10.921875 17.09375 -10.265625 L 19.484375 -10.265625 C 19.484375 -11.578125 19.015625 -12.695312 18.078125 -13.625 C 17.148438 -14.5625 16.023438 -15.03125 14.703125 -15.03125 L 6.359375 -15.03125 C 5.035156 -15.03125 3.90625 -14.5625 2.96875 -13.625 C 2.039062 -12.695312 1.578125 -11.578125 1.578125 -10.265625 L 1.578125 -4.78125 C 1.578125 -3.457031 2.039062 -2.328125 2.96875 -1.390625 C 3.90625 -0.460938 5.035156 0 6.359375 0 Z M 14.703125 0 "/></g></g></g><g fill="#ffe500" fill-opacity="1"><g transform="translate(258.798365, 173.054526)"><g><path d="M 15.859375 0 L 15.859375 -2.390625 L 4.484375 -2.390625 L 4.484375 -15.03125 L 2.09375 -15.03125 L 2.09375 0 Z M 15.859375 0 "/></g></g></g><g fill="#ffe500" fill-opacity="1"><g transform="translate(275.388355, 173.054526)"><g><path d="M 21.921875 0 L 19.03125 0 L 16.828125 -3.265625 L 5.40625 -3.265625 L 3.203125 0 L 0.3125 0 L 10.484375 -15.03125 L 11.75 -15.03125 Z M 15.203125 -5.65625 L 11.109375 -11.703125 L 7.015625 -5.65625 Z M 15.203125 -5.65625 "/></g></g></g><g fill="#ffe500" fill-opacity="1"><g transform="translate(297.616635, 173.054526)"><g><path d="M 15.90625 0 L 5.15625 0 C 4.164062 0 3.320312 -0.347656 2.625 -1.046875 C 1.925781 -1.742188 1.578125 -2.585938 1.578125 -3.578125 L 3.96875 -3.578125 C 3.96875 -3.253906 4.082031 -2.972656 4.3125 -2.734375 C 4.550781 -2.503906 4.832031 -2.390625 5.15625 -2.390625 L 15.90625 -2.390625 C 16.226562 -2.390625 16.503906 -2.503906 16.734375 -2.734375 C 16.972656 -2.972656 17.09375 -3.253906 17.09375 -3.578125 L 17.09375 -5.125 C 17.09375 -5.457031 16.972656 -5.738281 16.734375 -5.96875 C 16.503906 -6.207031 16.226562 -6.328125 15.90625 -6.328125 L 5.15625 -6.328125 C 4.164062 -6.328125 3.320312 -6.675781 2.625 -7.375 C 1.925781 -8.070312 1.578125 -8.914062 1.578125 -9.90625 L 1.578125 -11.453125 C 1.578125 -12.441406 1.925781 -13.285156 2.625 -13.984375 C 3.320312 -14.679688 4.164062 -15.03125 5.15625 -15.03125 L 15.90625 -15.03125 C 16.882812 -15.03125 17.722656 -14.679688 18.421875 -13.984375 C 19.128906 -13.285156 19.484375 -12.441406 19.484375 -11.453125 L 17.09375 -11.453125 C 17.09375 -11.785156 16.972656 -12.066406 16.734375 -12.296875 C 16.503906 -12.523438 16.226562 -12.640625 15.90625 -12.640625 L 5.15625 -12.640625 C 4.832031 -12.640625 4.550781 -12.523438 4.3125 -12.296875 C 4.082031 -12.066406 3.96875 -11.785156 3.96875 -11.453125 L 3.96875 -9.90625 C 3.96875 -9.570312 4.082031 -9.289062 4.3125 -9.0625 C 4.550781 -8.832031 4.832031 -8.71875 5.15625 -8.71875 L 15.90625 -8.71875 C 16.882812 -8.71875 17.722656 -8.363281 18.421875 -7.65625 C 19.128906 -6.957031 19.484375 -6.113281 19.484375 -5.125 L 19.484375 -3.578125 C 19.484375 -2.585938 19.128906 -1.742188 18.421875 -1.046875 C 17.722656 -0.347656 16.882812 0 15.90625 0 Z M 15.90625 0 "/></g></g></g><g clip-path="url(#fadd2522da)"><g clip-path="url(#d347bcbd82)"><g clip-path="url(#5747e8fe3c)"><g clip-path="url(#b6c4e0bc9f)"><path stroke-linecap="round" transform="matrix(0.0594103, 0.0723403, -0.0722156, 0.0593079, 148.96476, 158.870615)" fill="none" stroke-linejoin="round" d="M -552.226403 640.451758 L 119.996037 -523.822242 L 792.202512 640.476793 Z M -552.226403 640.451758 " stroke="#030303" stroke-width="5" stroke-opacity="1" stroke-miterlimit="4"/><path stroke-linecap="round" transform="matrix(0.0594103, 0.0723403, -0.0722156, 0.0593079, 148.96476, 158.870615)" fill="none" stroke-linejoin="round" d="M -552.226403 640.451758 L 119.996037 -523.822242 L 792.202512 640.476793 Z M -552.226403 640.451758 " stroke="#030303" stroke-width="5" stroke-opacity="1" stroke-miterlimit="4"/></g></g></g></g><g clip-path="url(#abbbd99167)"><g clip-path="url(#008b5c2710)"><g clip-path="url(#95f69450ec)"><g clip-path="url(#57e4eed39e)"><path stroke-linecap="round" transform="matrix(0.0545382, 0.0708191, -0.0707032, 0.0544367, 149.168373, 160.281347)" fill="none" stroke-linejoin="round" d="M -552.206319 640.459331 L 119.983214 -523.851356 L 792.203182 640.478112 Z M -552.206319 640.459331 " stroke="#030303" stroke-width="5" stroke-opacity="1" stroke-miterlimit="4"/></g></g></g></g><g clip-path="url(#978d8f93c1)"><g clip-path="url(#82f29f5b5f)"><g clip-path="url(#b1509a5c1f)"><g clip-path="url(#a6d21535d0)"><path stroke-linecap="round" transform="matrix(0.0498046, 0.0690529, -0.0689455, 0.0497045, 149.292271, 161.688549)" fill="none" stroke-linejoin="round" d="M -552.209994 640.460191 L 120.008368 -523.855307 L 792.200279 640.471383 Z M -552.209994 640.460191 " stroke="#030303" stroke-width="5" stroke-opacity="1" stroke-miterlimit="4"/></g></g></g></g><g clip-path="url(#94475a72a4)"><g clip-path="url(#d49b8bcab9)"><g clip-path="url(#c6c8e2649f)"><g clip-path="url(#d0ba4b70b9)"><path stroke-linecap="round" transform="matrix(0.0452267, 0.0670407, -0.0669418, 0.0451285, 149.336011, 163.084883)" fill="none" stroke-linejoin="round" d="M -552.192418 640.465629 L 119.972843 -523.830525 L 792.214942 640.441578 Z M -552.192418 640.465629 " stroke="#030303" stroke-width="5" stroke-opacity="1" stroke-miterlimit="4"/></g></g></g></g><g clip-path="url(#60686ed76f)"><g clip-path="url(#68d3be191b)"><g clip-path="url(#6b3195617a)"><g clip-path="url(#b97d73a087)"><path stroke-linecap="round" transform="matrix(0.0408132, 0.0647921, -0.0647014, 0.0407173, 149.300092, 164.467825)" fill="none" stroke-linejoin="round" d="M -552.221218 640.449587 L 119.998839 -523.825271 L 792.223796 640.449229 Z M -552.221218 640.449587 " stroke="#030303" stroke-width="5" stroke-opacity="1" stroke-miterlimit="4"/></g></g></g></g><g clip-path="url(#95f94ecea2)"><g clip-path="url(#e3b8031ab8)"><g clip-path="url(#02a7466de5)"><g clip-path="url(#eb3032b573)"><path stroke-linecap="round" transform="matrix(0.036574, 0.0623135, -0.0622308, 0.0364809, 149.185132, 165.834803)" fill="none" stroke-linejoin="round" d="M -552.208073 640.45204 L 120.002451 -523.820543 L 792.24092 640.452983 Z M -552.208073 640.45204 " stroke="#030303" stroke-width="5" stroke-opacity="1" stroke-miterlimit="4"/></g></g></g></g><g clip-path="url(#c4a6bae656)"><g clip-path="url(#a3995071be)"><g clip-path="url(#803c5e97ef)"><g clip-path="url(#14359d8f67)"><path stroke-linecap="round" transform="matrix(0.0325178, 0.0596093, -0.0595344, 0.0324278, 148.991611, 167.18186)" fill="none" stroke-linejoin="round" d="M -552.187331 640.461614 L 120.008675 -523.865753 L 792.199989 640.423195 Z M -552.187331 640.461614 " stroke="#030303" stroke-width="5" stroke-opacity="1" stroke-miterlimit="4"/></g></g></g></g><g clip-path="url(#d2cea90fc5)"><g clip-path="url(#c09f68b82d)"><g clip-path="url(#2579a6e384)"><g clip-path="url(#7f183c1a0a)"><path stroke-linecap="round" transform="matrix(0.0286561, 0.0566877, -0.0566202, 0.0285698, 148.719808, 168.505698)" fill="none" stroke-linejoin="round" d="M -552.209126 640.457432 L 120.034636 -523.854867 L 792.206609 640.428195 Z M -552.209126 640.457432 " stroke="#030303" stroke-width="5" stroke-opacity="1" stroke-miterlimit="4"/></g></g></g></g><g clip-path="url(#31ef6e24d5)"><g clip-path="url(#31cca73bbf)"><g clip-path="url(#968b308bb0)"><g clip-path="url(#c5e363645c)"><path stroke-linecap="round" transform="matrix(0.0249956, 0.0535576, -0.0534974, 0.0249134, 148.370692, 169.804851)" fill="none" stroke-linejoin="round" d="M -552.186598 640.474951 L 119.980204 -523.854562 L 792.23963 640.462521 Z M -552.186598 640.474951 " stroke="#030303" stroke-width="5" stroke-opacity="1" stroke-miterlimit="4"/></g></g></g></g><g clip-path="url(#03c3954da0)"><g clip-path="url(#a105e079d1)"><g clip-path="url(#b1733ad447)"><g clip-path="url(#bc80811791)"><path stroke-linecap="round" transform="matrix(0.0215438, 0.0502256, -0.0501724, 0.021466, 147.944863, 171.077509)" fill="none" stroke-linejoin="round" d="M -552.227241 640.467065 L 119.993165 -523.844779 L 792.185347 640.444282 Z M -552.227241 640.467065 " stroke="#030303" stroke-width="5" stroke-opacity="1" stroke-miterlimit="4"/></g></g></g></g><g clip-path="url(#03ac566028)"><g clip-path="url(#1e7e771a59)"><g clip-path="url(#3baeca0d2e)"><g clip-path="url(#00647ac71b)"><path stroke-linecap="round" transform="matrix(0.0183195, 0.0466907, -0.0466441, 0.0182467, 147.442113, 172.31114)" fill="none" stroke-linejoin="round" d="M -552.19363 640.446967 L 119.993673 -523.836384 L 792.180707 640.43315 Z M -552.19363 640.446967 " stroke="#030303" stroke-width="5" stroke-opacity="1" stroke-miterlimit="4"/></g></g></g></g><g clip-path="url(#3b07d86e71)"><g clip-path="url(#40ae646829)"><g clip-path="url(#ad4386260f)"><g clip-path="url(#30ece59741)"><path stroke-linecap="round" transform="matrix(0.0153218, 0.042966, -0.0429257, 0.0152543, 146.863413, 173.512693)" fill="none" stroke-linejoin="round" d="M -552.243054 640.452965 L 120.03355 -523.811168 L 792.194671 640.490062 Z M -552.243054 640.452965 " stroke="#030303" stroke-width="5" stroke-opacity="1" stroke-miterlimit="4"/></g></g></g></g><g clip-path="url(#48b4c416b7)"><g clip-path="url(#57e9ceb540)"><g clip-path="url(#0aaa8338bd)"><g clip-path="url(#3777f16080)"><path stroke-linecap="round" transform="matrix(0.0125613, 0.0390566, -0.0390223, 0.0124995, 146.210035, 174.676556)" fill="none" stroke-linejoin="round" d="M -552.239749 640.452894 L 120.028022 -523.865292 L 792.158711 640.470955 Z M -552.239749 640.452894 " stroke="#030303" stroke-width="5" stroke-opacity="1" stroke-miterlimit="4"/></g></g></g></g><g clip-path="url(#9e91123b36)"><g clip-path="url(#446bee0ab8)"><g clip-path="url(#a5ccdcf722)"><g clip-path="url(#b15d904319)"><path stroke-linecap="round" transform="matrix(0.0100464, 0.0349654, -0.0349367, 0.00999066, 145.480658, 175.801409)" fill="none" stroke-linejoin="round" d="M -552.231567 640.418214 L 120.055749 -523.84711 L 792.158721 640.488054 Z M -552.231567 640.418214 " stroke="#030303" stroke-width="5" stroke-opacity="1" stroke-miterlimit="4"/></g></g></g></g><g clip-path="url(#91fe32fc60)"><g clip-path="url(#8db03f9641)"><g clip-path="url(#f63182be1d)"><g clip-path="url(#ddee9f3efd)"><path stroke-linecap="round" transform="matrix(0.00778572, 0.0306945, -0.0306711, 0.0077364, 144.675156, 176.883255)" fill="none" stroke-linejoin="round" d="M -552.271731 640.500834 L 120.047918 -523.814806 L 792.25838 640.480939 Z M -552.271731 640.500834 " stroke="#030303" stroke-width="5" stroke-opacity="1" stroke-miterlimit="4"/></g></g></g></g><g clip-path="url(#94272b39ef)"><g clip-path="url(#019d63580b)"><g clip-path="url(#133e2e3203)"><g clip-path="url(#018b5c1b86)"><path stroke-linecap="round" transform="matrix(0.00578641, 0.0262418, -0.0262233, 0.00574395, 143.793554, 177.920232)" fill="none" stroke-linejoin="round" d="M -552.148681 640.419738 L 119.951041 -523.920753 L 792.156816 640.471547 Z M -552.148681 640.419738 " stroke="#030303" stroke-width="5" stroke-opacity="1" stroke-miterlimit="4"/></g></g></g></g><g clip-path="url(#569c91c58d)"><g clip-path="url(#28b0e8725c)"><g clip-path="url(#a10eb36dbb)"><g clip-path="url(#2156cf889b)"><path stroke-linecap="round" transform="matrix(0.0040576, 0.0216051, -0.021591, 0.0040224, 142.831416, 178.910863)" fill="none" stroke-linejoin="round" d="M -552.297901 640.483304 L 119.920014 -523.870473 L 792.1619 640.402082 Z M -552.297901 640.483304 " stroke="#030303" stroke-width="5" stroke-opacity="1" stroke-miterlimit="4"/></g></g></g></g><g clip-path="url(#1920f9bdc1)"><g clip-path="url(#ac16f5e788)"><g clip-path="url(#438933bca5)"><g clip-path="url(#25e74011be)"><path stroke-linecap="round" transform="matrix(0.00260654, 0.0167656, -0.0167556, 0.00257904, 141.784579, 179.855568)" fill="none" stroke-linejoin="round" d="M -552.170767 640.50605 L 119.956633 -523.870548 L 792.192553 640.519712 Z M -552.170767 640.50605 " stroke="#030303" stroke-width="5" stroke-opacity="1" stroke-miterlimit="4"/></g></g></g></g><g clip-path="url(#8b4845d49c)"><g clip-path="url(#f325cd0b9d)"><g clip-path="url(#5be9ba6c2b)"><g clip-path="url(#19c6b1f489)"><path stroke-linecap="round" transform="matrix(0.00144314, 0.0116899, -0.0116836, 0.00142384, 140.64515, 180.755878)" fill="none" stroke-linejoin="round" d="M -552.324196 640.291729 L 120.094656 -523.730766 L 792.288661 640.545329 Z M -552.324196 640.291729 " stroke="#030303" stroke-width="5" stroke-opacity="1" stroke-miterlimit="4"/></g></g></g></g><g clip-path="url(#059a2cb3df)"><g clip-path="url(#d2dc839eb2)"><g clip-path="url(#c8747e8282)"><g clip-path="url(#3ec98cfee1)"><path stroke-linecap="round" transform="matrix(0.00057668, 0.00628554, -0.00628247, 0.000566237, 139.385561, 181.621102)" fill="none" stroke-linejoin="round" d="M -552.38972 640.51922 L 119.906127 -523.900218 L 792.488113 640.235869 Z M -552.38972 640.51922 " stroke="#030303" stroke-width="5" stroke-opacity="1" stroke-miterlimit="4"/></g></g></g></g><g fill="#000000" fill-opacity="1"><g transform="translate(161.770892, 158.591342)"><g/></g></g><g clip-path="url(#a4249b51a1)"><path fill="#3b8c66" d="M 240.738281 176.597656 C 209.0625 219.425781 196.632812 236.371094 184.199219 253.3125 C 182.695312 255.363281 181 257.269531 179.046875 259.660156 C 167.035156 241.933594 155.449219 224.828125 143.390625 207.042969 C 156.246094 207.042969 168.066406 206.972656 179.886719 207.09375 C 182.398438 207.117188 183.96875 206.316406 185.441406 204.269531 C 190.746094 196.894531 196.265625 189.667969 201.699219 182.378906 C 202.84375 180.847656 203.988281 179.300781 205.566406 177.171875 L 200.660156 177.171875 C 178.242188 177.171875 155.8125 177.1875 133.394531 177.164062 C 116.453125 177.148438 99.515625 177.15625 82.574219 177.023438 C 74.140625 176.953125 67.449219 170.753906 66.964844 162.921875 C 66.480469 155.117188 72.03125 148.445312 80.257812 147.144531 C 82.699219 146.757812 85.214844 146.667969 87.6875 146.660156 C 121.566406 146.628906 155.449219 146.636719 189.335938 146.644531 C 190.769531 146.644531 192.199219 146.644531 193.746094 146.644531 C 193.8125 145.074219 193.894531 144.097656 193.894531 143.117188 C 193.902344 126.929688 193.902344 110.742188 193.894531 94.558594 C 193.886719 85.761719 193.878906 76.964844 193.851562 68.175781 L 157.046875 68.175781 C 157.136719 82.078125 157.226562 95.976562 157.332031 109.878906 C 157.367188 115.136719 155.84375 116.847656 150.65625 117.230469 C 149.660156 117.304688 148.667969 117.246094 147.664062 117.238281 C 130.851562 117.117188 114.039062 116.894531 97.226562 116.902344 C 87.890625 116.910156 78.460938 116.550781 69.238281 117.6875 C 47.542969 120.355469 31.941406 138.085938 30.863281 160.230469 C 29.847656 181.140625 44.484375 201.101562 65.320312 205.359375 C 74.574219 207.25 84.359375 206.816406 93.914062 206.953125 C 99.027344 207.019531 102.660156 208.722656 105.523438 212.945312 C 112.011719 222.53125 118.703125 231.988281 125.34375 241.46875 C 137.339844 258.597656 149.347656 275.71875 161.382812 292.816406 C 166.824219 300.542969 174.046875 304.660156 183.742188 303.347656 C 190.3125 302.457031 195.21875 298.832031 199.015625 293.554688 C 219.820312 264.710938 240.632812 235.855469 284.136719 176.582031 L 240.738281 176.582031 Z M 240.738281 176.597656 " fill-opacity="1" fill-rule="nonzero"/></g><path fill="#3b8c66" d="M 216.378906 259.007812 L 300.597656 259.007812 C 302.003906 259.007812 303.347656 259.566406 304.339844 260.558594 C 305.332031 261.546875 305.890625 262.894531 305.890625 264.296875 L 305.890625 281.550781 C 305.890625 282.953125 305.332031 284.300781 304.339844 285.292969 C 303.347656 286.28125 302.003906 286.839844 300.597656 286.839844 L 216.378906 286.839844 C 214.976562 286.839844 213.628906 286.28125 212.636719 285.292969 C 211.644531 284.300781 211.085938 282.953125 211.085938 281.550781 L 211.085938 264.296875 C 211.085938 262.894531 211.644531 261.546875 212.636719 260.558594 C 213.628906 259.566406 214.976562 259.007812 216.378906 259.007812 " fill-opacity="1" fill-rule="nonzero"/><g fill="#ffffff" fill-opacity="1"><g transform="translate(216.395439, 279.673986)"><g><path d="M 4.5 0 L 4.5 -15.046875 L 2.09375 -15.046875 L 2.09375 0 Z M 4.5 0 "/></g></g></g><g fill="#ffffff" fill-opacity="1"><g transform="translate(222.985817, 279.673986)"><g><path d="M 20.046875 0 L 18.40625 0 L 4.5 -11.34375 L 4.5 0 L 2.09375 0 L 2.09375 -15.046875 L 3.71875 -15.046875 L 17.640625 -3.71875 L 17.640625 -15.046875 L 20.046875 -15.046875 Z M 20.046875 0 "/></g></g></g><g fill="#ffffff" fill-opacity="1"><g transform="translate(245.118151, 279.673986)"><g><path d="M 4.5 0 L 4.5 -15.046875 L 2.09375 -15.046875 L 2.09375 0 Z M 4.5 0 "/></g></g></g><g fill="#ffffff" fill-opacity="1"><g transform="translate(251.708529, 279.673986)"><g><path d="M 14.734375 0 C 16.054688 0 17.179688 -0.460938 18.109375 -1.390625 C 19.046875 -2.328125 19.515625 -3.457031 19.515625 -4.78125 L 17.125 -4.78125 C 17.125 -4.125 16.890625 -3.5625 16.421875 -3.09375 C 15.953125 -2.625 15.390625 -2.390625 14.734375 -2.390625 L 6.359375 -2.390625 C 5.691406 -2.390625 5.125 -2.625 4.65625 -3.09375 C 4.195312 -3.5625 3.96875 -4.125 3.96875 -4.78125 L 3.96875 -10.28125 C 3.96875 -10.9375 4.195312 -11.5 4.65625 -11.96875 C 5.125 -12.4375 5.691406 -12.671875 6.359375 -12.671875 L 14.734375 -12.671875 C 15.390625 -12.671875 15.953125 -12.4375 16.421875 -11.96875 C 16.890625 -11.5 17.125 -10.9375 17.125 -10.28125 L 19.515625 -10.28125 C 19.515625 -11.59375 19.046875 -12.710938 18.109375 -13.640625 C 17.179688 -14.578125 16.054688 -15.046875 14.734375 -15.046875 L 6.359375 -15.046875 C 5.035156 -15.046875 3.90625 -14.578125 2.96875 -13.640625 C 2.039062 -12.710938 1.578125 -11.59375 1.578125 -10.28125 L 1.578125 -4.78125 C 1.578125 -3.457031 2.039062 -2.328125 2.96875 -1.390625 C 3.90625 -0.460938 5.035156 0 6.359375 0 Z M 14.734375 0 "/></g></g></g><g fill="#ffffff" fill-opacity="1"><g transform="translate(272.79144, 279.673986)"><g><path d="M 4.5 0 L 4.5 -15.046875 L 2.09375 -15.046875 L 2.09375 0 Z M 4.5 0 "/></g></g></g><g fill="#ffffff" fill-opacity="1"><g transform="translate(279.381817, 279.673986)"><g><path d="M 14.734375 0 C 16.054688 0 17.179688 -0.460938 18.109375 -1.390625 C 19.046875 -2.328125 19.515625 -3.457031 19.515625 -4.78125 L 19.515625 -10.28125 C 19.515625 -11.59375 19.046875 -12.710938 18.109375 -13.640625 C 17.179688 -14.578125 16.054688 -15.046875 14.734375 -15.046875 L 6.359375 -15.046875 C 5.035156 -15.046875 3.90625 -14.578125 2.96875 -13.640625 C 2.039062 -12.710938 1.578125 -11.59375 1.578125 -10.28125 L 1.578125 -4.78125 C 1.578125 -3.457031 2.039062 -2.328125 2.96875 -1.390625 C 3.90625 -0.460938 5.035156 0 6.359375 0 Z M 14.734375 -2.390625 L 6.359375 -2.390625 C 5.691406 -2.390625 5.125 -2.625 4.65625 -3.09375 C 4.195312 -3.5625 3.96875 -4.125 3.96875 -4.78125 L 3.96875 -10.28125 C 3.96875 -10.9375 4.195312 -11.5 4.65625 -11.96875 C 5.125 -12.4375 5.691406 -12.671875 6.359375 -12.671875 L 14.734375 -12.671875 C 15.390625 -12.671875 15.953125 -12.4375 16.421875 -11.96875 C 16.890625 -11.5 17.125 -10.9375 17.125 -10.28125 L 17.125 -4.78125 C 17.125 -4.125 16.890625 -3.5625 16.421875 -3.09375 C 15.953125 -2.625 15.390625 -2.390625 14.734375 -2.390625 Z M 14.734375 -2.390625 "/></g></g></g><path fill="#3b8c66" d="M 182.90625 142.601562 L 323.8125 142.601562 C 328.421875 142.601562 332.15625 146.332031 332.15625 150.933594 L 332.15625 173.949219 C 332.15625 178.550781 328.421875 182.28125 323.8125 182.28125 L 182.90625 182.28125 C 178.296875 182.28125 174.558594 178.550781 174.558594 173.949219 L 174.558594 150.933594 C 174.558594 146.332031 178.296875 142.601562 182.90625 142.601562 " fill-opacity="1" fill-rule="nonzero"/><g fill="#ffffff" fill-opacity="1"><g transform="translate(191.735558, 169.191582)"><g><path d="M 14.703125 0 C 16.023438 0 17.148438 -0.460938 18.078125 -1.390625 C 19.015625 -2.328125 19.484375 -3.457031 19.484375 -4.78125 L 19.484375 -10.265625 C 19.484375 -11.578125 19.015625 -12.695312 18.078125 -13.625 C 17.148438 -14.5625 16.023438 -15.03125 14.703125 -15.03125 L 6.359375 -15.03125 C 5.035156 -15.03125 3.90625 -14.5625 2.96875 -13.625 C 2.039062 -12.695312 1.578125 -11.578125 1.578125 -10.265625 L 1.578125 -4.78125 C 1.578125 -3.457031 2.039062 -2.328125 2.96875 -1.390625 C 3.90625 -0.460938 5.035156 0 6.359375 0 Z M 14.703125 -2.390625 L 6.359375 -2.390625 C 5.691406 -2.390625 5.125 -2.617188 4.65625 -3.078125 C 4.195312 -3.546875 3.96875 -4.113281 3.96875 -4.78125 L 3.96875 -10.265625 C 3.96875 -10.921875 4.195312 -11.484375 4.65625 -11.953125 C 5.125 -12.421875 5.691406 -12.65625 6.359375 -12.65625 L 14.703125 -12.65625 C 15.359375 -12.65625 15.921875 -12.421875 16.390625 -11.953125 C 16.859375 -11.484375 17.09375 -10.921875 17.09375 -10.265625 L 17.09375 -4.78125 C 17.09375 -4.113281 16.859375 -3.546875 16.390625 -3.078125 C 15.921875 -2.617188 15.359375 -2.390625 14.703125 -2.390625 Z M 14.703125 -2.390625 "/></g></g></g><g fill="#ffffff" fill-opacity="1"><g transform="translate(212.783988, 169.191582)"><g><path d="M 14.703125 0 C 16.023438 0 17.148438 -0.460938 18.078125 -1.390625 C 19.015625 -2.328125 19.484375 -3.457031 19.484375 -4.78125 L 19.484375 -15.03125 L 17.09375 -15.03125 L 17.09375 -4.78125 C 17.09375 -4.113281 16.859375 -3.546875 16.390625 -3.078125 C 15.921875 -2.617188 15.359375 -2.390625 14.703125 -2.390625 L 6.359375 -2.390625 C 5.691406 -2.390625 5.125 -2.617188 4.65625 -3.078125 C 4.195312 -3.546875 3.96875 -4.113281 3.96875 -4.78125 L 3.96875 -15.03125 L 1.578125 -15.03125 L 1.578125 -4.78125 C 1.578125 -3.457031 2.039062 -2.328125 2.96875 -1.390625 C 3.90625 -0.460938 5.035156 0 6.359375 0 Z M 14.703125 0 "/></g></g></g><g fill="#ffffff" fill-opacity="1"><g transform="translate(233.832417, 169.191582)"><g><path d="M 14.703125 0 C 15.984375 0 17.109375 -0.460938 18.078125 -1.390625 C 19.003906 -2.335938 19.472656 -3.46875 19.484375 -4.78125 L 19.484375 -6.328125 C 19.484375 -6.796875 19.316406 -7.195312 18.984375 -7.53125 C 18.648438 -7.863281 18.25 -8.03125 17.78125 -8.03125 L 10.53125 -8.03125 L 10.53125 -5.640625 L 17.09375 -5.640625 L 17.09375 -4.78125 C 17.09375 -4.132812 16.859375 -3.570312 16.390625 -3.09375 C 15.898438 -2.625 15.335938 -2.390625 14.703125 -2.390625 L 6.359375 -2.390625 C 5.691406 -2.390625 5.125 -2.617188 4.65625 -3.078125 C 4.195312 -3.546875 3.96875 -4.113281 3.96875 -4.78125 L 3.96875 -10.265625 C 3.96875 -10.921875 4.195312 -11.484375 4.65625 -11.953125 C 5.125 -12.421875 5.691406 -12.65625 6.359375 -12.65625 L 14.703125 -12.65625 C 15.359375 -12.65625 15.921875 -12.421875 16.390625 -11.953125 C 16.859375 -11.484375 17.09375 -10.921875 17.09375 -10.265625 L 19.484375 -10.265625 C 19.484375 -11.578125 19.015625 -12.695312 18.078125 -13.625 C 17.148438 -14.5625 16.023438 -15.03125 14.703125 -15.03125 L 6.359375 -15.03125 C 5.035156 -15.03125 3.90625 -14.5625 2.96875 -13.625 C 2.039062 -12.695312 1.578125 -11.578125 1.578125 -10.265625 L 1.578125 -4.78125 C 1.578125 -3.457031 2.039062 -2.328125 2.96875 -1.390625 C 3.90625 -0.460938 5.035156 0 6.359375 0 Z M 14.703125 0 "/></g></g></g><g fill="#ffffff" fill-opacity="1"><g transform="translate(254.880847, 169.191582)"><g><path d="M 15.859375 0 L 15.859375 -2.390625 L 4.484375 -2.390625 L 4.484375 -15.03125 L 2.09375 -15.03125 L 2.09375 0 Z M 15.859375 0 "/></g></g></g><g fill="#ffffff" fill-opacity="1"><g transform="translate(271.466048, 169.191582)"><g><path d="M 21.921875 0 L 19.03125 0 L 16.828125 -3.265625 L 5.40625 -3.265625 L 3.203125 0 L 0.3125 0 L 10.484375 -15.03125 L 11.75 -15.03125 Z M 15.203125 -5.65625 L 11.109375 -11.703125 L 7.015625 -5.65625 Z M 15.203125 -5.65625 "/></g></g></g><g fill="#ffffff" fill-opacity="1"><g transform="translate(293.687909, 169.191582)"><g><path d="M 15.90625 0 L 5.15625 0 C 4.164062 0 3.320312 -0.347656 2.625 -1.046875 C 1.925781 -1.742188 1.578125 -2.585938 1.578125 -3.578125 L 3.96875 -3.578125 C 3.96875 -3.253906 4.082031 -2.972656 4.3125 -2.734375 C 4.550781 -2.503906 4.832031 -2.390625 5.15625 -2.390625 L 15.90625 -2.390625 C 16.226562 -2.390625 16.503906 -2.503906 16.734375 -2.734375 C 16.972656 -2.972656 17.09375 -3.253906 17.09375 -3.578125 L 17.09375 -5.125 C 17.09375 -5.457031 16.972656 -5.738281 16.734375 -5.96875 C 16.503906 -6.207031 16.226562 -6.328125 15.90625 -6.328125 L 5.15625 -6.328125 C 4.164062 -6.328125 3.320312 -6.675781 2.625 -7.375 C 1.925781 -8.070312 1.578125 -8.914062 1.578125 -9.90625 L 1.578125 -11.453125 C 1.578125 -12.441406 1.925781 -13.285156 2.625 -13.984375 C 3.320312 -14.679688 4.164062 -15.03125 5.15625 -15.03125 L 15.90625 -15.03125 C 16.882812 -15.03125 17.722656 -14.679688 18.421875 -13.984375 C 19.128906 -13.285156 19.484375 -12.441406 19.484375 -11.453125 L 17.09375 -11.453125 C 17.09375 -11.785156 16.972656 -12.066406 16.734375 -12.296875 C 16.503906 -12.523438 16.226562 -12.640625 15.90625 -12.640625 L 5.15625 -12.640625 C 4.832031 -12.640625 4.550781 -12.523438 4.3125 -12.296875 C 4.082031 -12.066406 3.96875 -11.785156 3.96875 -11.453125 L 3.96875 -9.90625 C 3.96875 -9.570312 4.082031 -9.289062 4.3125 -9.0625 C 4.550781 -8.832031 4.832031 -8.71875 5.15625 -8.71875 L 15.90625 -8.71875 C 16.882812 -8.71875 17.722656 -8.363281 18.421875 -7.65625 C 19.128906 -6.957031 19.484375 -6.113281 19.484375 -5.125 L 19.484375 -3.578125 C 19.484375 -2.585938 19.128906 -1.742188 18.421875 -1.046875 C 17.722656 -0.347656 16.882812 0 15.90625 0 Z M 15.90625 0 "/></g></g></g></svg>